<?xml version="1.0" encoding="UTF-8" standalone="no"?><!DOCTYPE svg PUBLIC "-//W3C//DTD SVG 1.1//EN" "http://www.w3.org/Graphics/SVG/1.1/DTD/svg11.dtd"><svg width="100%" height="100%" viewBox="0 0 842 1191" version="1.1" xmlns="http://www.w3.org/2000/svg" xmlns:xlink="http://www.w3.org/1999/xlink" xml:space="preserve" xmlns:serif="http://www.serif.com/" style="fill-rule:evenodd;clip-rule:evenodd;stroke-linejoin:round;stroke-miterlimit:2;"><rect id="Artboard1" x="0" y="0" width="841.89" height="1190.551" style="fill:none;"/><g id="Artboard11" serif:id="Artboard1"><g><path d="M452.996,598.39c0.028,65.261 -1.421,67.077 9.133,82.386c9.034,13.104 24.302,19.552 36.774,20.105c3.615,0.16 2.623,1.711 2.326,5.312c-0.144,1.749 -1.238,1.101 -44.956,1.189c-2.387,0.005 -29.31,0.059 -29.843,0.005c-1.321,-0.133 -1.14,-0.846 -1.14,-27.985c0,-195.316 -0.021,-195.376 0.298,-195.725c0.452,-0.493 0.584,-0.41 72.714,-0.437c3.884,-0.001 3.008,1.639 2.894,5.479c-0.095,3.192 -12.851,-2.496 -31.138,12.554c-13.451,11.07 -16.801,26.902 -17.022,34.977c-0.066,2.413 -0.029,40.285 -0.04,62.138Z" style="fill:#fff;"/><path d="M410.353,656.865c-0.024,49.665 0.154,49.911 -0.494,50.349c-0.316,0.214 -0.358,0.116 -38.254,0.175c-2.875,0.005 -34.41,0.054 -35.932,-0.01c-1.801,-0.075 -1.819,-6.371 0.014,-6.49c37.016,-2.384 46.883,-32.832 46.969,-47.678c0.056,-9.695 0.648,-111.838 -0.353,-121.189c-1.92,-17.931 -16.904,-39.474 -43.585,-42.1c-2.785,-0.274 -4.246,1.058 -4.252,-1.783c-0.001,-0.385 -0.009,-4.478 0.643,-4.767c0.988,-0.439 67.2,-0.174 73.044,-0.15c1.775,0.007 2.214,0.059 2.21,1.871c-0.003,57.257 -0.006,114.515 -0.009,171.772Z" style="fill:#fff;"/></g></g></svg>